<?xml version="1.0" encoding="UTF-8"?>
<svg id="Ebene_2" data-name="Ebene 2" xmlns="http://www.w3.org/2000/svg" viewBox="0 0 58.37 40.99">
  <defs>
    <style>
      .cls-1 {
        fill: #fff;
      }

      .cls-2, .cls-3, .cls-4 {
        fill: #9fa1c3;
      }

      .cls-3 {
        stroke: #fff;
      }

      .cls-3, .cls-4, .cls-5 {
        stroke-linecap: round;
        stroke-linejoin: round;
        stroke-width: .25px;
      }

      .cls-4, .cls-5 {
        stroke: #9fa1c3;
      }

      .cls-5 {
        fill: none;
      }
    </style>
  </defs>
  <g id="Ebene_1-2" data-name="Ebene 1">
    <g>
      <g>
        <path class="cls-2" d="M46.21,40.87c-.06,0-.12,0-.18-.02L3.95,33.29c-1.22-.22-2.28-.9-2.99-1.92-.71-1.02-.98-2.25-.76-3.47L5.19,.14,52.82,8.71l-5.63,31.34c-.09,.47-.5,.82-.98,.82Z"/>
        <path class="cls-1" d="M5.29,.29L52.68,8.81l-5.61,31.22c-.07,.42-.43,.72-.86,.72-.05,0-.1,0-.16-.01L3.97,33.17c-2.45-.44-4.09-2.79-3.65-5.25L5.29,.29m-.2-.29L.08,27.88c-.47,2.59,1.26,5.07,3.85,5.54l42.09,7.56c.07,.01,.13,.02,.2,.02,.53,0,1-.38,1.1-.92l5.65-31.47L5.08,0h0Z"/>
      </g>
      <line class="cls-3" x1="20.73" y1="9.53" x2="48.16" y2="14.85"/>
      <line class="cls-3" x1="18.97" y1="18.61" x2="46.4" y2="23.93"/>
      <line class="cls-3" x1="19.87" y1="13.95" x2="47.31" y2="19.27"/>
      <g>
        <path class="cls-2" d="M14.59,19.15c-.08,0-.17,0-.25-.02l-8.12-1.5c-.75-.14-1.25-.86-1.11-1.61l1.59-8.63c.12-.66,.69-1.13,1.36-1.13,.08,0,.17,0,.25,.02l8.12,1.5c.75,.14,1.25,.86,1.11,1.61l-1.59,8.63c-.12,.66-.69,1.13-1.36,1.13Z"/>
        <path class="cls-1" d="M8.05,6.38h0c.08,0,.15,0,.23,.02l8.13,1.5c.33,.06,.62,.25,.81,.52,.19,.28,.26,.61,.2,.94l-1.59,8.63c-.11,.6-.63,1.03-1.24,1.03-.08,0-.15,0-.23-.02l-8.13-1.5c-.68-.13-1.14-.78-1.01-1.47l1.59-8.63c.11-.6,.63-1.03,1.24-1.03m0-.25c-.71,0-1.35,.51-1.48,1.24l-1.59,8.63c-.15,.82,.39,1.61,1.21,1.76l8.13,1.5c.09,.02,.18,.03,.28,.03,.71,0,1.35-.51,1.48-1.24l1.59-8.63c.15-.82-.39-1.61-1.21-1.76l-8.13-1.5c-.09-.02-.18-.03-.28-.03h0Z"/>
      </g>
      <line class="cls-3" x1="4.21" y1="20.87" x2="45.3" y2="28.51"/>
      <line class="cls-3" x1="3.66" y1="23.94" x2="44.76" y2="31.58"/>
      <line class="cls-3" x1="3.02" y1="27.15" x2="44.11" y2="34.79"/>
      <line class="cls-4" x1="54.79" y1="12.8" x2="50.17" y2="39.75"/>
      <line class="cls-4" x1="58.25" y1="9.37" x2="52.89" y2="39.64"/>
      <path class="cls-5" d="M46.34,39.61c-.19,.32,.19,.65,.78,.86s1.36,.3,2.12,.35c.81,.06,1.71,.06,2.37-.15,.44-.14,.71-.34,.92-.55,.23-.23,.42-.47,.4-.71"/>
    </g>
  </g>
</svg>